<svg xmlns="http://www.w3.org/2000/svg" version="1.1" xmlns:xlink="http://www.w3.org/1999/xlink" width="1500" height="571" viewBox="0 0 1500 571"><svg xml:space="preserve" width="1500" height="571" data-version="2" data-id="lg_ymGPQGvrprtfWufPf1" viewBox="0 0 569 571" x="0" y="0"><rect width="100%" height="100%" fill="transparent"></rect><path fill="#1609ff" d="M287.795 531.9c-13.004 0-25.719-2.948-37.788-8.76-11.449-5.513-21.807-13.336-30.794-23.25-18.013-19.871-28.34-46.137-28.34-72.057v-.039h-40.719v-46.531c-25.405-.367-50.92-10.648-70.208-28.336-9.788-8.977-17.505-19.339-22.94-30.798-5.72-12.062-8.62-24.774-8.62-37.785s2.9-25.722 8.62-37.781c5.435-11.46 13.152-21.818 22.94-30.794 19.285-17.688 44.803-27.966 70.208-28.336v-34.917h40.73c.384-25.427 10.673-51.015 28.353-70.417 8.98-9.854 19.339-17.628 30.788-23.102 12.062-5.777 24.77-8.701 37.77-8.701s25.709 2.924 37.77 8.694c11.45 5.477 21.808 13.247 30.788 23.102 17.68 19.402 27.97 44.99 28.354 70.416h40.726v34.918c25.408.367 50.93 10.648 70.222 28.336 9.791 8.976 17.516 19.338 22.954 30.794 5.724 12.059 8.624 24.77 8.624 37.781s-2.903 25.723-8.624 37.781c-5.438 11.46-13.16 21.822-22.95 30.798-19.296 17.688-44.818 27.97-70.223 28.336v46.532h-40.715v.039c0 25.923-10.33 52.185-28.34 72.056-8.987 9.915-19.345 17.737-30.794 23.25-12.073 5.813-24.788 8.761-37.788 8.761Zm-134.82-106.927h40.748l-.018 1.428q-.01.713-.01 1.432c0 25.229 10.062 50.803 27.61 70.163 8.74 9.643 18.809 17.247 29.926 22.6 11.688 5.63 23.99 8.483 36.564 8.483 12.574 0 24.88-2.853 36.565-8.482 11.117-5.354 21.186-12.958 29.926-22.601 17.547-19.36 27.61-44.934 27.61-70.163q0-.716-.011-1.432l-.018-1.428h40.744v-46.521h1.411c25.176 0 50.591-10.063 69.729-27.606 9.523-8.73 17.028-18.8 22.308-29.927 5.541-11.678 8.352-23.983 8.352-36.575s-2.81-24.893-8.352-36.571c-5.28-11.128-12.785-21.198-22.308-29.923-19.138-17.544-44.553-27.603-69.729-27.603h-1.41v-34.906h-40.713v-1.411c-.018-25.194-10.087-50.683-27.63-69.93-8.733-9.583-18.8-17.141-29.92-22.46-11.681-5.587-23.98-8.419-36.554-8.419-12.574 0-24.876 2.832-36.554 8.42-11.117 5.318-21.183 12.873-29.92 22.459-17.542 19.247-27.612 44.736-27.63 69.93v1.41h-40.719v34.907h-1.41c-25.173 0-50.581 10.063-69.712 27.603-9.52 8.729-17.021 18.795-22.298 29.923-5.537 11.678-8.348 23.983-8.348 36.575s2.808 24.893 8.348 36.575c5.277 11.127 12.779 21.197 22.298 29.926 19.13 17.544 44.54 27.606 69.711 27.606h1.411z"></path><path fill="none" stroke="#1609ff" stroke-width="7.11" d="M560.152 277.688c0 62.746-50.865 113.615-113.61 113.615v55.337H398.1q.012.86.012 1.725c0 62.745-50.865 113.61-113.61 113.61-62.746 0-113.61-50.865-113.61-113.61q0-.869.01-1.725h-48.445v-55.337c-62.745 0-113.61-50.87-113.61-113.615s50.865-113.61 113.61-113.61v-41.522h48.434c.044-62.71 50.893-113.532 113.61-113.532 62.718 0 113.568 50.822 113.611 113.532h48.43v41.522c62.745 0 113.61 50.865 113.61 113.61"></path><path fill="#1609ff" d="m130.84 338.205.64-3.39q3.71-.32 5.37-.99 1.66-.67 2.09-2.61.44-1.93.44-6.12v-34.45q-4.59.16-7.23.44-2.65.28-3.91 1.18-1.27.91-1.82 2.89-.55 1.97-1.03 5.45l-3.71.31q.32-2.29.55-4.74.24-2.44.4-4.77.16-2.34.24-4.15l.71-.63 6.55.86h24.49l6.72-.86.71.63q.08 1.81.24 4.15.15 2.33.43 4.7t.51 4.5l-3.71.31q-.55-3.55-1.14-5.56-.6-2.02-1.82-2.93-1.23-.91-3.67-1.22-2.45-.32-6.72-.56-.24 2.37-.47 6.8-.24 4.42-.4 9.91-.16 5.49-.27 11.18-.12 5.69-.12 10.51 0 2.92 1.02 4.15 1.03 1.22 3.48 1.22 2.37 0 4.34-.24l.24.32-.71 3.63q-1.66-.08-3.87-.11-2.21-.04-4.31-.08-2.09-.04-3.43-.04-1.27 0-3.2.04-1.94.04-3.95.11-2.02.08-3.68.16"></path><rect width="41.55" height="51.58" x="-20.77" y="-25.79" fill="none" rx="0" ry="0" transform="translate(142.96 312.92)"></rect><path fill="#1609ff" d="m188.36 338.685-.24-.56.32-3.08q2.76-.23 4.26-.55 1.5-.32 2.13-.91.64-.59.64-1.54 0-.79-.16-1.74t-.55-2.05l-2.61-8.61q-1.42-.08-3.99-.08h-4.23q-2.29 0-4.78.24-2.49.23-3.83.39l-2.92 8.22q-.71 2.13-.71 3.08 0 1.74 1.14 2.49 1.15.75 3.6.75h4.5l.16.31-.48 3.4-1.65-.16q-1.66-.16-4.19-.27-2.53-.12-5.14-.12-1.89 0-3.91.04-2.01.04-3.39.11l-1.39.08.64-3.71q2.21-.24 3.55-1.5 1.34-1.26 2.61-4.58l15.4-40.37 4.98-1.34h.63l.52 1.85q.51 1.86 1.42 5.14.91 3.28 2.13 7.5 1.22 4.23 2.61 8.97 1.38 4.74 2.88 9.6 1.5 4.86 3 9.28.95 2.92 2.57 4.11 1.62 1.18 5.02 1.5l.15.31-.55 3.24-1.54-.08q-1.54-.07-3.51-.11-1.98-.04-3.32-.04-3 0-5.73.19-2.73.2-4.38.4zm-11.62-22.36h6.96q1.58 0 3.79-.16t3.55-.24l-6.24-20.69h-.55Z"></path><rect width="48.11" height="52.06" x="-24.05" y="-26.03" fill="none" rx="0" ry="0" transform="translate(185.5 313.15)"></rect><path fill="#1609ff" d="M225.57 338.835q-3.72 0-6.52-.67-2.81-.67-4.35-1.34l-1.54-.67-.39-.79.16-1.07q.15-1.06.31-2.92.16-1.86.32-4.39.16-2.52.16-5.37l3.55-.39q0 5.69.79 8.65t3 4.03q2.21 1.06 6.48 1.06 4.9 0 7.94-2.33t3.04-6.36q0-2.6-1.74-4.5-1.73-1.9-4.46-3.48t-5.81-3.16q-3.16-1.65-6.12-3.55t-4.86-4.38q-1.89-2.49-1.89-5.89 0-4.19 2.41-7.51 2.41-3.31 6.51-5.25 4.11-1.93 9.25-1.93 3.55 0 6.28.47 2.72.47 4.26.99l1.54.51.24.47-.35 1.82q-.36 1.82-.76 4.86-.39 3.04-.63 6.68l-3.08.31-.47-.39.12-1.15q.11-1.14.11-2.96 0-4.19-2.01-5.77-2.01-1.58-7.39-1.58-4.34 0-7.15 2.17-2.8 2.18-2.8 5.42 0 2.37 1.5 4.22 1.5 1.86 3.95 3.36 2.45 1.5 5.29 3 3.48 1.74 6.84 3.71 3.35 1.98 5.57 4.51 2.21 2.53 2.21 6.16 0 4.5-2.49 7.98-2.49 3.47-6.87 5.45-4.39 1.97-10.15 1.97"></path><rect width="32.31" height="52.21" x="-16.16" y="-26.11" fill="none" rx="0" ry="0" transform="translate(229.43 313.23)"></rect><path fill="#1609ff" d="m269.33 311.905 14.14-14.7q2.45-2.45 2.45-4.11 0-1.02-1.22-1.62-1.23-.59-3.76-.75l-.15-.31.55-3.4.91.08q.91.08 2.33.2 1.42.12 2.88.19 1.46.08 2.57.08 1.18 0 2.45-.04 1.26-.04 2.37-.11 1.1-.08 1.78-.12l.67-.04.31.55-.55 3.24q-1.34.24-2.53.87-1.18.63-2.68 1.97-1.5 1.35-3.87 3.8l-12.72 13.35 13.27 17.3q2.84 3.63 5.09 5.17 2.26 1.54 5.02 1.54l.32.32-.48 2.68-.87.16q-.87.16-2.09.32-1.22.16-2.25.31-1.03.16-1.34.16-1.98 0-4.27-1.81-2.29-1.82-4.58-4.98l-13.83-19.2Zm-7.9-16.67q0-2.53-.55-3.4-.55-.87-2.37-.87-.71 0-1.7.08l-.99.08-.16-.32.56-3.47.91.04q.9.04 2.33.08 1.42.03 2.92.07 1.5.04 2.61.04 1.26 0 2.72-.11 1.46-.12 2.77-.24 1.3-.12 2.13-.24l.83-.12-.32 3.56q-2.92.47-4.03 1.46-1.1.99-1.18 3.28l-.95 33.89q-.08 3.16.67 4.26.75 1.11 2.81 1.11 1.18 0 2.37-.12l1.18-.12.16.32-.71 3.63-.99-.04q-.99-.04-2.57-.07l-3.19-.08q-1.62-.04-2.97-.04h-3.08q-1.58 0-2.96.04t-2.21.04h-.83l.79-3.56q3.71-.39 4.82-1.5 1.1-1.11 1.1-4.5Z"></path><rect width="44.32" height="52.14" x="-22.16" y="-26.07" fill="none" rx="0" ry="0" transform="translate(277.3 313.43)"></rect><path fill="#1609ff" d="m303.54 338.125-1.11-2.52 29.47-44.56-13.67.47q-3.63.16-5.8 1.23-2.18 1.06-3.28 3.36-1.11 2.29-1.58 6.32l-3.72.31.2-1.34q.2-1.34.48-3.64.27-2.29.47-5.01.2-2.73.28-5.41l.79-.71 13.82.86 20.38.56.87 2.29q-5.61 7.42-10.58 14.5-4.98 7.07-9.01 13.11-4.03 6.04-6.83 10.39-2.81 4.34-4.07 6.4l16.04-.56q4.1-.08 6.63-3.24 2.53-3.16 3.79-9.87l3.72-.4-.24 1.43q-.24 1.42-.59 3.83-.36 2.41-.67 5.25-.32 2.85-.48 5.69l-1.18 1.26-28.6-.47Z"></path><rect width="38.71" height="51.5" x="-19.36" y="-25.75" fill="none" rx="0" ry="0" transform="translate(322.29 312.88)"></rect><path fill="#1609ff" d="m349.2 338.685.47-3.64q3.56-.47 4.86-1.85 1.31-1.39 1.31-4.78l.08-33.18q0-2.53-.56-3.4-.55-.87-2.37-.87-.47 0-1.26.04t-1.42.12l-.16-.32.55-3.47q1.34 0 3.24.08 1.9.07 3.95.11 2.05.04 3.79.04 6.32 0 10.63-.08 4.3-.07 7.38-.31 3.09-.24 5.69-.55l.24.47q-.4 1.9-.79 4.23-.4 2.33-.63 4.62-.24 2.29-.4 4.26l-3.79.32q.08-.71.12-1.78.04-1.06.04-1.62 0-1.89-.36-3.04-.35-1.14-1.5-1.7-1.14-.55-3.59-.71-2.45-.16-6.64-.16-2.53 0-3.71.16-1.19.16-1.46.79-.28.63-.36 2.13l-.79 18.41-.31 16.59q0 2.13.39 3.12.4.99 1.7 1.31 1.3.31 4.15.31 4.66 0 7.5-.31 2.85-.32 4.35-1.27 1.5-.95 2.21-2.88.71-1.94 1.18-5.18l3.48-.39.24.39q-.56 2.45-1.15 6.24-.59 3.8-.99 7.04l-.39.47q-4.74-.16-9.44-.28-4.7-.12-8.49-.19-3.8-.08-6.01-.08-2.45 0-5.57.19-3.12.2-5.41.6m11.46-24.02.71-4.74h2.13q1.58 0 3.4.04 1.81.04 3.16.04 1.34 0 4.14-.28 2.81-.27 5.49-.59l.32.4-1.11 4.66q-2.21-.08-5.49-.16-3.27-.08-5.57-.08-1.5 0-3.51.2-2.02.19-3.67.51"></path><rect width="37.45" height="52.06" x="-18.73" y="-26.03" fill="none" rx="0" ry="0" transform="translate(368.43 313.15)"></rect><path fill="#1609ff" d="M436.34 341.055q-5.77-9.01-11.06-16.91-5.3-7.9-9.4-13.86-4.11-5.97-6.52-9.37l-2.41-3.39h-.4l-.39 33.73q0 1.74.55 2.45.56.71 1.9.71.39 0 1.38-.04.99-.04 1.82-.04h.83l.16.32-.72 3.55-.82-.04q-.83-.04-2.1-.12-1.26-.07-2.72-.11-1.47-.04-2.73-.04-1.58 0-3.28.15-1.7.16-2.88.32l-1.19.16.4-3.64q2.45-.31 3.63-1.42 1.19-1.1 1.27-3.55l1.02-34.53q0-2.44-1.46-3.47-1.46-1.03-5.41-1.42l-.24-.4.64-2.92 1.22.08q1.22.08 2.84.2 1.62.11 2.73.11 1.34 0 2.53-.08 1.18-.07 1.97-.15l.79-.08q3.95 6.08 7.78 11.85 3.84 5.76 7.23 10.74 3.4 4.98 6.01 8.69l4.07 5.81 1.46 2.09h.39v-31.99q0-1.74-.63-2.57-.63-.83-1.98-.83-1.02 0-2.01.04l-.99.04-.16-.32.72-3.55.79.04q.79.04 1.97.12 1.19.07 2.45.11 1.26.04 2.29.04 1.66 0 3.48-.15 1.81-.16 3.08-.32l1.26-.16-.39 3.64q-2.69.31-3.99 1.5-1.31 1.18-1.39 3.47l-1.1 44.4Z"></path><rect width="49.93" height="54.12" x="-24.96" y="-27.06" fill="none" rx="0" ry="0" transform="translate(421.04 314.5)"></rect><path fill="#1609ff" d="M237.92 229.715q0-1.92-2.07-3.08-.4-.21-2.51-1.14-1.91-.81-2.41-1.67-.25-.47-.25-1.01 0-1.44 1.39-2 .6-.24 1.33-.24 1.81 0 2.75 1.23.63.84.61 2.04h.64v-3.76q-.52 0-.6.32-.04.15-.04.41-1.53-.84-3.44-.84-2.32 0-3.61 1.29-.86.9-.86 2.11 0 1.8 2.02 2.94.36.19 2.45 1.1 1.93.86 2.45 1.74.28.49.28 1.07 0 1.5-1.46 2.17-.69.3-1.53.3-3.29-.04-3.65-4.02h-.65v4.45q.52 0 .61-.3.04-.17.04-.62 1.65 1.09 3.76 1.09 2.47 0 3.82-1.33.93-.94.93-2.25"></path><rect width="9.16" height="13.32" x="-4.58" y="-6.66" fill="none" rx="0" ry="0" transform="translate(233.84 227.13)"></rect><path fill="#1609ff" d="M239.42 224.485h1.5v6.06q.15 2.69 2.47 2.77 1.98 0 2.48-2.42v-.05l-.58-.1q-.54 1.78-1.57 1.93-1.16-.04-1.18-1.65v-6.54h3.33v-.53h-3.33v-2.49l-1.62.45v2.04h-1.5Z"></path><rect width="6.45" height="11.85" x="-3.23" y="-5.92" fill="none" rx="0" ry="0" transform="translate(243.15 227.89)"></rect><path fill="#1609ff" d="M254.37 233.295q1.66 0 1.83-2 .02-.12.02-.23l-.56-.02q-.15 1.57-.84 1.59-.55-.05-.58-1.12v-4.53q0-3.08-3.07-3.25h-.38q-2.41 0-3.23 1.12-.26.36-.26.73 0 .67.63.77.11.03.21.03.5 0 .73-.63.3-.79.41-.94.41-.54 1.27-.54 2.02.13 2.08 2.21v1.36q-5.05 0-5.78 2.1-.13.41-.13.88 0 1.64 1.44 2.24.58.23 1.23.23 1.57 0 2.64-1.07.39-.41.58-.86.26 1.91 1.76 1.93m-4.27-.86q-1.31 0-1.61-1.31-.07-.3-.07-.66 0-1.44 1.66-1.83.88-.19 2.55-.21v1.71q-.32 1.49-1.57 2.09-.49.21-.96.21"></path><rect width="9.5" height="9.56" x="-4.75" y="-4.78" fill="none" rx="0" ry="0" transform="translate(251.97 229.01)"></rect><path fill="#1609ff" d="M258.54 236.495q-.34 0-.51-.51-.24-.65-.46-.8-.19-.13-.45-.13-.68 0-.79.61-.02.08-.02.15 0 .81.94 1.18.43.17.9.17 1.7 0 2.95-2.08.51-.84.99-2l3.18-7.84q.21-.61.47-.69.15-.04.34-.04.43 0 .5-.24.04-.13.04-.32h-3.27v.56h1.57l-2.75 6.87-2.94-6.87h1.44v-.56h-4.19v.56h1.05l3.87 8.57q-1.2 2.83-2.26 3.29-.3.12-.6.12"></path><rect width="10.31" height="13.21" x="-5.16" y="-6.61" fill="none" rx="0" ry="0" transform="translate(261.96 231.06)"></rect><path fill="#1609ff" d="M278.54 219.975q-2.58 0-4.42 1.7-2.02 1.87-2.02 4.88 0 3.48 2.38 5.37 1.74 1.37 4 1.37 2.53 0 4.36-1.72 2.04-1.91 2.04-4.94 0-3.54-2.47-5.39-1.68-1.27-3.87-1.27m0 12.72q-3.11 0-3.99-3.33-.3-1.18-.3-2.73 0-5.11 3.09-5.93.54-.13 1.14-.13 4.23.05 4.25 5.98 0 4.68-2.6 5.82-.73.32-1.59.32"></path><rect width="12.78" height="13.32" x="-6.39" y="-6.66" fill="none" rx="0" ry="0" transform="translate(278.99 227.13)"></rect><path fill="#1609ff" d="M290.9 232.545h-.97v-4.64q.06-2 1.42-2.88.58-.36 1.18-.36 1.31 0 1.78 1.22.2.5.2 1.12v4.25q0 .99-.56 1.18-.32.11-1.06.11v.54h4.84q0-.47-.32-.52-.09-.02-.22-.02h-1.07v-5.33q0-2.15-1.49-3.07-.68-.41-1.48-.41-1.59 0-2.62 1.27-.39.49-.62 1.1l-.09-2.15h-3.11v.53h1.61v6.77q0 .99-.56 1.18-.32.11-1.05.11v.54h4.72q0-.47-.32-.52-.08-.02-.21-.02"></path><rect width="11.02" height="9.35" x="-5.51" y="-4.67" fill="none" rx="0" ry="0" transform="translate(292.72 228.91)"></rect><path fill="#1609ff" d="M311.52 233.085q0-.47-.34-.54-.11-.02-.22-.02h-1.46v-11.77h1.25q1.74 0 2.32 2.1 0 .09.02.13l.34 1.44h.61l-.11-4.23h-10.62l-.1 4.23h.6l.34-1.44q.69-2.1 2.34-2.23h1.16v11.77h-2.04v.56Z"></path><rect width="10.83" height="12.89" x="-5.42" y="-6.45" fill="none" rx="0" ry="0" transform="translate(309.13 227.14)"></rect><path fill="#1609ff" d="M323.19 233.295q1.65 0 1.82-2 .03-.12.03-.23l-.56-.02q-.15 1.57-.84 1.59-.56-.05-.58-1.12v-4.53q0-3.08-3.07-3.25h-.39q-2.41 0-3.22 1.12-.26.36-.26.73 0 .67.62.77.11.03.22.03.49 0 .73-.63.3-.79.41-.94.4-.54 1.26-.54 2.02.13 2.09 2.21v1.36q-5.05 0-5.78 2.1-.13.41-.13.88 0 1.64 1.44 2.24.58.23 1.22.23 1.57 0 2.65-1.07.38-.41.58-.86.25 1.91 1.76 1.93m-4.28-.86q-1.31 0-1.61-1.31-.06-.3-.06-.66 0-1.44 1.65-1.83.88-.19 2.56-.21v1.71q-.32 1.49-1.57 2.09-.5.21-.97.21"></path><rect width="9.5" height="9.56" x="-4.75" y="-4.78" fill="none" rx="0" ry="0" transform="translate(320.79 229.01)"></rect><path fill="#1609ff" d="M329.22 232.715q1.49 0 2-.9.2-.32.2-.71 0-.9-1.31-1.55-.28-.15-.93-.42-1.76-.74-2.34-1.38-.62-.71-.62-1.65 0-1.49 1.63-2.09.75-.28 1.63-.28 1.42 0 2.45.6 0-.62.3-.7.13-.03.28-.03v2.69h-.56q-.04-1.98-2.19-2-1.61 0-2 .95-.1.25-.1.53 0 .93 1.33 1.57.3.15.94.41 1.74.71 2.32 1.35.63.69.63 1.64 0 1.74-1.85 2.32-.71.23-1.55.23-1.54-.02-2.68-.77 0 .56-.28.64-.13.03-.3.03v-3.27h.6q.04 2.77 2.4 2.79"></path><rect width="6.66" height="9.69" x="-3.33" y="-4.84" fill="none" rx="0" ry="0" transform="translate(330.05 228.95)"></rect><path fill="#1609ff" d="M338.59 232.545h-.96v-3.18l1.18-1.09 3.03 4.81h2.85q0-.47-.32-.52-.08-.02-.21-.02h-.78l-3.46-5.33 2.02-1.89q.76-.71 1.14-.79.17-.05.39-.05.47 0 .51-.32.03-.11.03-.21h-3.66v.53h1.61l-4.33 4.02v-9.39h-3.23v.54h1.61v11.6q0 .99-.55 1.18-.33.11-1.06.11v.54h4.73q0-.47-.32-.52-.09-.02-.22-.02"></path><rect width="10.29" height="13.97" x="-5.14" y="-6.99" fill="none" rx="0" ry="0" transform="translate(340.05 226.6)"></rect><path fill="#1609ff" d="M347.74 232.095q0-.71-.64-1.01-.22-.11-.45-.11-.71 0-.99.65-.11.23-.11.47 0 .69.63.99.23.11.47.11.69 0 .99-.63.1-.23.1-.47"></path><rect width="2.19" height="2.22" x="-1.09" y="-1.11" fill="none" rx="0" ry="0" transform="translate(347.14 232.59)"></rect><path fill="#1609ff" d="M245.97 258.545q0-1.91-2.06-3.07-.41-.21-2.51-1.14-1.91-.81-2.41-1.67-.26-.48-.26-1.01 0-1.44 1.4-2 .6-.24 1.33-.24 1.81 0 2.75 1.23.62.83.6 2.04h.65v-3.76q-.52 0-.6.32-.05.15-.05.41-1.52-.84-3.43-.84-2.32 0-3.61 1.29-.86.9-.86 2.1 0 1.81 2.02 2.95.36.19 2.45 1.09 1.93.86 2.45 1.74.27.5.27 1.08 0 1.5-1.46 2.17-.68.3-1.52.3-3.29-.04-3.65-4.02h-.65v4.45q.52 0 .6-.3.05-.17.05-.63 1.65 1.1 3.76 1.1 2.47 0 3.82-1.33.92-.95.92-2.26"></path><rect width="9.15" height="13.32" x="-4.58" y="-6.66" fill="none" rx="0" ry="0" transform="translate(241.9 255.97)"></rect><path fill="#1609ff" d="M247.48 253.325h1.5v6.06q.15 2.69 2.47 2.77 1.98 0 2.47-2.43v-.04l-.58-.11q-.53 1.79-1.57 1.94-1.16-.05-1.18-1.66v-6.53h3.33v-.54h-3.33v-2.49l-1.61.45v2.04h-1.5Z"></path><rect width="6.44" height="11.86" x="-3.22" y="-5.93" fill="none" rx="0" ry="0" transform="translate(251.2 256.73)"></rect><path fill="#1609ff" d="M262.43 262.135q1.65 0 1.83-2 .02-.13.02-.23l-.56-.03q-.15 1.57-.84 1.59-.56-.04-.58-1.11v-4.54q0-3.07-3.07-3.24h-.39q-2.4 0-3.22 1.12-.26.36-.26.73 0 .66.63.77.1.02.21.02.49 0 .73-.62.3-.8.41-.95.41-.53 1.27-.53 2.02.13 2.08 2.21v1.35q-5.05 0-5.78 2.11-.13.41-.13.88 0 1.63 1.44 2.23.58.24 1.23.24 1.56 0 2.64-1.07.39-.41.58-.86.26 1.91 1.76 1.93m-4.27-.86q-1.32 0-1.62-1.31-.06-.3-.06-.67 0-1.43 1.65-1.82.88-.19 2.56-.22v1.72q-.32 1.48-1.57 2.09-.49.21-.96.21"></path><rect width="9.5" height="9.56" x="-4.75" y="-4.78" fill="none" rx="0" ry="0" transform="translate(260.03 257.86)"></rect><path fill="#1609ff" d="M266.6 265.335q-.35 0-.52-.51-.23-.65-.45-.8-.19-.13-.45-.13-.69 0-.79.6-.03.09-.03.15 0 .82.95 1.19.43.17.9.17 1.7 0 2.95-2.09.51-.83.98-1.99l3.18-7.85q.22-.6.48-.68.15-.05.34-.05.43 0 .49-.23.05-.13.05-.33h-3.27v.56h1.57l-2.75 6.88-2.94-6.88h1.44v-.56h-4.19v.56h1.05l3.87 8.58q-1.21 2.83-2.26 3.28-.3.13-.6.13"></path><rect width="10.32" height="13.22" x="-5.16" y="-6.61" fill="none" rx="0" ry="0" transform="translate(270.02 259.9)"></rect><path fill="#1609ff" d="M285.1 261.925q0-.48-.35-.54-.1-.02-.21-.02h-1.14v-11.78h1.7v-.55h-5.27v.55h1.72v11.78h-1.72v.56Z"></path><rect width="5.27" height="12.89" x="-2.63" y="-6.45" fill="none" rx="0" ry="0" transform="translate(282.96 255.98)"></rect><path fill="#1609ff" d="M290.79 261.385h-.97v-4.64q.07-2 1.42-2.88.58-.37 1.18-.37 1.31 0 1.79 1.23.19.49.19 1.12v4.25q0 .99-.56 1.18-.32.11-1.05.11v.54h4.83q0-.48-.32-.52-.09-.02-.22-.02h-1.07v-5.33q0-2.15-1.48-3.07-.69-.41-1.48-.41-1.59 0-2.63 1.27-.38.49-.62 1.09l-.08-2.15h-3.12v.54h1.61v6.77q0 .99-.56 1.18-.32.11-1.05.11v.54h4.73q0-.48-.33-.52-.08-.02-.21-.02"></path><rect width="11.02" height="9.35" x="-5.51" y="-4.67" fill="none" rx="0" ry="0" transform="translate(292.61 257.75)"></rect><path fill="#1609ff" d="m313.48 261.925.04-4.45h-.47l-.45 2.06q-.45 1.81-2.11 1.83h-5.31l8.23-11.88v-.45h-9.56l-.19 3.88h.43l.84-1.93q.64-1.37 1.74-1.4h4.68l-8.46 11.91v.43Z"></path><rect width="10.63" height="12.89" x="-5.32" y="-6.45" fill="none" rx="0" ry="0" transform="translate(308.7 255.98)"></rect><path fill="#1609ff" d="M319.51 253.115q1.51 0 2 1.26.17.41.17.89 0 1.07-1.03 1.31-.53.1-1.52.08l-2.28-.06q.11-2.47 1.61-3.23.5-.25 1.05-.25m3.74 6.74-.53-.19q-.76 1.63-2.43 1.85-.22.02-.41.02-2.26 0-2.84-2.69-.17-.75-.19-1.65l2.58.04q2.62.05 3.37-.49.58-.43.58-1.23 0-1.46-1.48-2.32-1.05-.62-2.43-.62-2.68 0-3.84 2.23-.61 1.16-.61 2.63 0 2.66 1.92 3.95 1.14.75 2.6.75 2.32 0 3.41-1.68.17-.3.3-.6"></path><rect width="8.36" height="9.56" x="-4.18" y="-4.78" fill="none" rx="0" ry="0" transform="translate(319.7 257.86)"></rect><path fill="#1609ff" d="M328.97 261.385H328v-4.64q.07-2 1.42-2.88.58-.37 1.18-.37 1.31 0 1.78 1.23.2.49.2 1.12v4.25q0 .99-.56 1.18-.32.11-1.05.11v.54h4.83q0-.48-.32-.52-.09-.02-.22-.02h-1.07v-5.33q0-2.15-1.48-3.07-.69-.41-1.49-.41-1.59 0-2.62 1.27-.38.49-.62 1.09l-.09-2.15h-3.11v.54h1.61v6.77q0 .99-.56 1.18-.32.11-1.05.11v.54h4.72q0-.48-.32-.52-.08-.02-.21-.02"></path><rect width="11.02" height="9.35" x="-5.51" y="-4.67" fill="none" rx="0" ry="0" transform="translate(330.79 257.75)"></rect><path fill="#1609ff" d="M339.6 260.935q0-.71-.64-1.01-.22-.11-.45-.11-.71 0-.99.64-.11.24-.11.48 0 .68.62.99.24.1.48.1.68 0 .99-.62.1-.24.1-.47"></path><rect width="2.19" height="2.21" x="-1.09" y="-1.1" fill="none" rx="0" ry="0" transform="translate(339 261.42)"></rect><path fill="#1609ff" d="M406.117 398.454c-5.038 0-9.762-3.781-9.762-3.781 0 7.714-6.304 18.903-18.589 18.903-12.285 0-17.492-9.609-17.492-14.808 0-5.2 2.676-13.228 11.817-13.228s10.415 6.15 10.552 7.714c.161 1.782.161 6.828-4.885 6.828s-5.352-3.2-5.352-4.619c0-1.419.943-2.209.943-2.209s.21-1.572-1.733-1.572c-1.733 0-5.2.79-5.2 7.562s7.715 8.665 10.4 8.665 12.76-1.257 12.76-12.914c0-11.656-8.82-16.388-17.8-16.388-8.979 0-17.169 3.152-17.169 3.152s6.304-5.989 17.799-5.989c19.693 0 25.674 17.17 33.864 17.17 2.225 0 3.466-.629 3.466-2.362s-2.047-1.104-3.305-.79c-1.257.314-3.62-.943-3.62-3.152s.944-4.256 4.886-4.256 6.771 2.676 6.771 7.4-3.305 8.666-8.351 8.666Zm-235.22-221.032c4.828 0 9.355 3.623 9.355 3.623 0-7.4 6.041-18.115 17.814-18.115s16.755 9.208 16.755 14.19c0 4.983-2.564 12.678-11.324 12.678s-9.981-5.895-10.112-7.393c-.155-1.707-.155-6.543 4.68-6.543s5.13 3.066 5.13 4.426c0 1.36-.903 2.117-.903 2.117s-.201 1.506 1.66 1.506c1.661 0 4.983-.757 4.983-7.246s-7.393-8.304-9.965-8.304-12.229 1.205-12.229 12.375 8.451 15.697 17.057 15.697c8.606 0 16.454-3.02 16.454-3.02s-6.04 5.74-17.057 5.74c-18.872 0-24.604-16.455-32.452-16.455-2.132 0-3.322.603-3.322 2.264 0 1.66 1.962 1.058 3.167.757 1.205-.302 3.469.904 3.469 3.02s-.904 4.079-4.682 4.079-6.481-2.565-6.481-7.092c0-4.526 3.167-8.304 8.003-8.304m234.649-.013c-4.986 0-9.66 3.741-9.66 3.741-.008-7.642-6.238-18.706-18.403-18.706s-17.302 9.509-17.302 14.654 2.648 13.09 11.694 13.09 10.306-6.086 10.442-7.634c.16-1.763.16-6.757-4.834-6.757s-5.297 3.167-5.297 4.571.934 2.186.934 2.186.207 1.556-1.716 1.556c-1.715 0-5.145-.782-5.145-7.483s7.634-8.575 10.29-8.575 12.628 1.244 12.628 12.779-8.727 16.21-17.613 16.21-16.991-3.112-16.991-3.112 6.238 5.927 17.613 5.927c19.488 0 25.407-16.99 33.512-16.99 2.201 0 3.43.621 3.43 2.336 0 1.715-2.026 1.093-3.27.782-1.245-.311-3.583.933-3.583 3.12s.934 4.211 4.835 4.211 6.7-2.648 6.7-7.323c0-4.674-3.27-8.575-8.264-8.575Zm-236.35 221.754c5.196 0 10.067-3.899 10.067-3.899 0 7.956 6.501 19.494 19.17 19.494 12.67 0 18.031-9.91 18.031-15.271 0-5.362-2.76-13.642-12.187-13.642s-10.74 6.343-10.882 7.956c-.166 1.837-.166 7.041 5.038 7.041s5.52-3.3 5.52-4.763-.973-2.278-.973-2.278-.216-1.621 1.788-1.621c1.787 0 5.361.815 5.361 7.797s-7.955 8.937-10.723 8.937-13.16-1.297-13.16-13.317c0-12.021 9.103-16.9 18.355-16.9 9.261 0 17.707 3.25 17.707 3.25s-6.492-6.177-18.355-6.177c-20.3 0-26.477 17.707-34.923 17.707-2.294 0-3.575-.649-3.575-2.436s2.112-1.139 3.409-.815c1.297.325 3.732-.972 3.732-3.25s-.972-4.39-5.037-4.39-6.975 2.769-6.975 7.64c0 4.872 3.408 8.937 8.612 8.937m98.034-240.991c18.126 0 21.214 49.425 21.214 49.425s3.087-49.425 21.212-49.425c14.443 0 7.734 14.916 7.734 14.916s16.826-26.562-7.902-30.184c0 0-10.79 0-16.536 11.508 0 0 6.465-11.523 6.465-23.719 0-22.176-10.255-40.974-10.973-52.482-.719 11.508-10.974 30.291-10.974 52.482 0 12.196 6.465 23.72 6.465 23.72-5.746-11.509-16.536-11.509-16.536-11.509-24.743 3.638-7.901 30.184-7.901 30.184s-6.725-14.916 7.733-14.916m43.121 268.652c-18.722 0-21.91-51.052-21.91-51.052s-3.19 51.052-21.912 51.052c-14.917 0-7.987-15.407-7.987-15.407s-17.38 27.436 8.161 31.177c0 0 11.145 0 17.08-11.887 0 0-6.677 11.903-6.677 24.5 0 22.906 10.592 42.322 11.334 54.21.742-11.888 11.335-31.289 11.335-54.21 0-12.597-6.678-24.5-6.678-24.5 5.936 11.887 17.08 11.887 17.08 11.887 25.558-3.757 8.162-31.177 8.162-31.177s6.946 15.407-7.988 15.407"></path></svg></svg>